<svg id="Layer_1" data-name="Layer 1" xmlns="http://www.w3.org/2000/svg" viewBox="0 0 1446.78 792"><defs><style>.cls-1{fill:#fff;}</style></defs><circle cx="232.24" cy="386" r="232.24"/><path class="cls-1" d="M-266.51,319a5.09,5.09,0,0,1-.16,1.72c-.46,1.57-.89,3.16-1.27,4.76-.29,1.25-.59,2.49-.91,3.73l-.5,2a46.23,46.23,0,0,1-1.54,5.68c-1,2.26-2.8,3.15-5,4.1a23.47,23.47,0,0,0-2.43,1.15,285.16,285.16,0,0,1-27.47,14.05l-.62.29q-3,1.4-6.07,2.75l-.87.37a399.11,399.11,0,0,1-65.88,21.78c-2.89.7-5.79,1.42-8.68,2.15.8.8,1.58,1.6,2.43,2.35s1.8,1.53,2.64,2.36c1.28,1.31,2.6,2.57,3.95,3.81s3,2.72,4.42,4.1c1.66,1.55,3.32,3.1,5,4.61l3.25,2.95c1.32,1.22,2.65,2.44,4,3.62l2.19,1.93c1.1,1,2.2,2,3.32,3s2,1.71,2.92,2.58c2.16,2,4.35,3.9,6.57,5.79l2.49,2.12q3.49,3,7,6l1.69,1.43q3.39,2.88,6.83,5.7l3.72,3,1,.83,1.87,1.53.62.51c.71.57,1.36,1.14,2,1.78v1c-3.52,1.47-7,2.89-10.61,4.22l-2.38.89-1.6.6-.76.29-1.39.52c-1.37.44-3,1.12-4.36.45a30.74,30.74,0,0,0-2.64-2.46c-1.81-1.44-3.54-2.93-5.22-4.51-1.38-1.29-2.77-2.53-4.23-3.71-1.25-1-2.45-2-3.64-3.1-1-.91-2-1.81-3-2.69-.66-.56-1.3-1.13-1.94-1.72l-.54-.52-1.12-1.05c-.65-.63-1.3-1.2-2-1.78a3.38,3.38,0,0,0-2.15-.2c-23.47,7.21-49,10.65-73.43,12l-.71,0a4.08,4.08,0,0,1-.21,1.74c-.11.28-.21.56-.32.83s-.25.67-.37,1l-.87,2.3c-.16.44-.33.88-.49,1.33-.82,2.15-1.62,4.31-2.42,6.48l-1.32,3.56c-.3.8-.6,1.6-.89,2.4-.44,1.17-.87,2.34-1.3,3.51-.14.37-.28.74-.41,1.1-.87,2.36-1.79,4.68-2.85,7l-8.61,0h-7l-8.61,0c-1.06-2.28-2-4.6-2.85-7-.13-.36-.27-.73-.41-1.1-.43-1.17-.86-2.34-1.3-3.51-.29-.8-.59-1.6-.89-2.4l-1.32-3.56c-.8-2.17-1.6-4.33-2.42-6.48-.16-.45-.33-.89-.49-1.33l-.87-2.3c-.12-.33-.25-.66-.37-1s-.21-.55-.32-.83a4.08,4.08,0,0,1-.21-1.74l-.71,0c-24.46-1.31-50-4.75-73.43-12a3.38,3.38,0,0,0-2.15.2c-.7.58-1.35,1.15-2,1.78l-1.12,1.05-.54.52c-.64.59-1.28,1.16-1.94,1.72-1,.88-2,1.78-3,2.69-1.19,1.07-2.39,2.1-3.64,3.1-1.46,1.18-2.85,2.42-4.23,3.71-1.68,1.58-3.41,3.07-5.22,4.51a30.74,30.74,0,0,0-2.64,2.46c-1.36.67-3,0-4.36-.45l-1.39-.52-.76-.29-1.6-.6-2.38-.89c-3.56-1.33-7.09-2.75-10.61-4.22v-1c.66-.64,1.31-1.21,2-1.78l.62-.51,1.87-1.53,1-.83,3.72-3q3.45-2.82,6.83-5.7l1.69-1.43q3.53-3,7-6l2.49-2.12c2.22-1.89,4.41-3.81,6.57-5.79,1-.87,1.93-1.73,2.92-2.58s2.22-2,3.32-3l2.19-1.93c1.36-1.18,2.69-2.4,4-3.62l3.25-2.95c1.69-1.51,3.35-3.06,5-4.61,1.46-1.38,2.94-2.74,4.42-4.1s2.67-2.5,4-3.81c.84-.83,1.74-1.59,2.64-2.36s1.63-1.55,2.43-2.35c-2.89-.73-5.79-1.45-8.68-2.15a399.11,399.11,0,0,1-65.88-21.78l-.87-.37q-3-1.35-6.07-2.75l-.62-.29a285.16,285.16,0,0,1-27.47-14.05,23.47,23.47,0,0,0-2.43-1.15c-2.18-.95-4-1.84-5-4.1a46.23,46.23,0,0,1-1.54-5.68l-.5-2c-.32-1.24-.62-2.48-.91-3.73-.38-1.6-.81-3.19-1.27-4.76a5.09,5.09,0,0,1-.16-1.72,18.9,18.9,0,0,1,3.27,1.57l.89.54.95.57c7.12,4.25,14.38,8.2,21.76,11.95l3.42,1.76a337.11,337.11,0,0,0,42.54,17.94l.7.25a384.54,384.54,0,0,0,50.64,13.84l1.13.23,3.2.63.94.18c.6.12,1.2.22,1.79.32a16.31,16.31,0,0,1,1.83.4,4.31,4.31,0,0,0,3.88-.54c1.11-1,2.14-2,3.16-3.1l1.15-1.17c1-1,2-2.06,3-3.1s2-2.09,3.06-3.13c4.22-4.28,4.22-4.28,8.24-8.76a19.39,19.39,0,0,1,1.54-1.6h.69c1.49,3.7,2.89,7.44,4.24,11.19l.54,1.46.75,2.08c.14.4.29.8.44,1.22a3.1,3.1,0,0,1-.07,2.43,42.23,42.23,0,0,1-5.47,5.8c-1,1-2,2-2.92,3.1-1.38,1.59-2.84,3.07-4.33,4.55l-.87.88-2.86,2.86-2,2-4.19,4.18-4.81,4.82-4.16,4.15-2.47,2.48-2.76,2.75-.81.82c-1.42,1.41-2.87,2.77-4.39,4.07-1.07.94-2.07,2-3.07,3a52,52,0,0,1-4.35,4.05,2,2,0,0,0-.83,1.13l1.19.14c1.59.2,3.15.51,4.72.84l1.86.39,1,.2c11,2.26,22,4,33.07,5.33l.89.1c4.14.51,8.26.81,12.42,1l-.33-.89q-1.66-4.5-3.32-9l-2.15-5.85c-.76-2.06-1.52-4.11-2.27-6.17-.42-1.14-.83-2.28-1.26-3.42l-1.42-3.88c-.14-.39-.29-.78-.44-1.19l-.39-1.09c-.12-.31-.24-.63-.35-.95a3.12,3.12,0,0,1,.14-2.23,42.5,42.5,0,0,1,5.28-5.62c1.25-1.24,2.43-2.5,3.57-3.84a36.41,36.41,0,0,1,2.59-2.68h.7c.07.2.15.4.22.61q9.74,26.46,19.61,52.87c.2.54.4,1.09.61,1.63q2.91,7.77,5.85,15.52c.12.32.24.63.36,1,.53,1.36,1.05,2.73,1.58,4.1l.51,1.35c.15.37.29.75.44,1.13a4.1,4.1,0,0,1,.3,1.94h.68a4.1,4.1,0,0,1,.3-1.94c.15-.38.29-.76.44-1.13l.51-1.35c.53-1.37,1.05-2.74,1.58-4.1.12-.33.24-.64.36-1q3-7.74,5.85-15.52c.21-.54.41-1.09.61-1.63q9.9-26.4,19.61-52.87c.07-.21.15-.41.22-.61h.7a36.41,36.41,0,0,1,2.59,2.68c1.14,1.34,2.32,2.6,3.57,3.84a42.5,42.5,0,0,1,5.28,5.62,3.12,3.12,0,0,1,.14,2.23c-.11.32-.23.64-.35.95l-.39,1.09c-.15.41-.3.8-.44,1.19l-1.42,3.88c-.43,1.14-.84,2.28-1.26,3.42-.75,2.06-1.51,4.11-2.27,6.17l-2.15,5.85q-1.65,4.5-3.32,9l-.33.89c4.16-.17,8.28-.47,12.42-1l.89-.1c11.1-1.35,22.11-3.07,33.07-5.33l1-.2,1.86-.39c1.57-.33,3.13-.64,4.72-.84l1.19-.14a2,2,0,0,0-.83-1.13,52,52,0,0,1-4.35-4.05c-1-1-2-2.05-3.07-3-1.52-1.3-3-2.66-4.39-4.07l-.81-.82-2.76-2.75-2.47-2.48-4.16-4.15-4.81-4.82-4.19-4.18-2-2-2.86-2.86-.87-.88c-1.49-1.48-2.95-3-4.33-4.55-.93-1.08-1.9-2.1-2.92-3.1a42.23,42.23,0,0,1-5.47-5.8,3.1,3.1,0,0,1-.07-2.43c.15-.42.3-.82.44-1.22l.75-2.08.54-1.46c1.35-3.75,2.75-7.49,4.24-11.19h.69a19.39,19.39,0,0,1,1.54,1.6c4,4.48,4,4.48,8.24,8.76q1.54,1.56,3.06,3.13c1,1,2,2.08,3,3.1l1.15,1.17c1,1.08,2.05,2.12,3.16,3.1a4.31,4.31,0,0,0,3.88.54,16.31,16.31,0,0,1,1.83-.4c.59-.1,1.19-.2,1.79-.32l.94-.18,3.2-.63,1.13-.23A384.54,384.54,0,0,0-340,353.58l.7-.25a337.11,337.11,0,0,0,42.54-17.94l3.42-1.76c7.38-3.75,14.64-7.7,21.76-11.95l.95-.57.89-.54A18.9,18.9,0,0,1-266.51,319Z" transform="translate(697.46 0)"/><path class="cls-1" d="M-643.51,355.76q4.68,2.16,9.3,4.48c6.3,3.19,12.63,6.27,19.13,9l.74.32a353.21,353.21,0,0,0,48.52,17l1,.26.82.21c.65.23.65.23,1.34.92l-2.6,2.45-.73.69q-2.15,2-4.36,3.94c-1.12,1-2.21,2-3.3,3l-.8.7-.64.58a1.92,1.92,0,0,1-1.52.45l-.84-.2-.92-.23c-1.46-.4-2.9-.85-4.34-1.34l-1-.32-3.11-1.06-1.09-.38a367,367,0,0,1-45.49-19q-.87-.4-1.77-.75c-2.8-1.17-2.8-1.17-3.69-2.54a24.63,24.63,0,0,1-1-3.16l-.33-1.17c-.34-1.23-.66-2.46-1-3.7-.23-.83-.46-1.66-.7-2.49-.42-1.52-.83-3-1.23-4.56l-.24-.92A7.52,7.52,0,0,1-643.51,355.76Z" transform="translate(697.46 0)"/><path class="cls-1" d="M-623.75,391.48a12.83,12.83,0,0,1,3.64,1.18l1.16.53,1.25.58c9.87,4.51,20.05,8.25,30.28,11.86,1,.35,1.91.72,2.86,1.11a6.19,6.19,0,0,1-2.32,2.75c-1.65,1.31-3.24,2.66-4.83,4.05l-2,1.7-1.55,1.35-.81.68-.68.57c-.93.47-1.39.25-2.4,0-.75-.26-1.5-.53-2.24-.82l-.65-.25-2.1-.81-.72-.28c-3.24-1.26-6.47-2.57-9.66-3.95l-1-.43-.92-.41-.79-.35a2.79,2.79,0,0,1-1.61-1.76l-.28-.92-.32-1-.33-1.14-.35-1.15-.72-2.43-1.11-3.73-.7-2.35-.34-1.13-.31-1.05-.27-.92A3.67,3.67,0,0,1-623.75,391.48Z" transform="translate(697.46 0)"/><path class="cls-1" d="M-285.1,358l-.24.92c-.4,1.53-.82,3-1.24,4.56l-.69,2.49c-.32,1.24-.64,2.47-1,3.7l-.33,1.17a24.59,24.59,0,0,1-1,3.16c-.9,1.37-.9,1.37-3.69,2.54q-.9.35-1.77.75a367.62,367.62,0,0,1-45.49,19l-1.09.38-3.11,1.06-1,.32c-1.44.49-2.88.94-4.34,1.34l-.93.23-.83.2a1.9,1.9,0,0,1-1.52-.45l-.64-.58-.8-.7c-1.09-1-2.18-2-3.3-3q-2.22-1.93-4.36-3.94l-.73-.69-2.6-2.45c.69-.69.69-.69,1.34-.92l.81-.21,1-.26a352.62,352.62,0,0,0,48.51-17l.74-.32c6.51-2.77,12.83-5.85,19.14-9,3.07-1.55,6.18-3,9.3-4.48A7.52,7.52,0,0,1-285.1,358Z" transform="translate(697.46 0)"/><path class="cls-1" d="M-304.89,392.91l-.27.92-.31,1.05-.34,1.13c-.24.78-.47,1.57-.7,2.35-.38,1.24-.75,2.48-1.11,3.73-.24.81-.49,1.62-.73,2.43l-.34,1.15-.34,1.14-.31,1-.28.92a2.84,2.84,0,0,1-1.61,1.76l-.8.35-.92.41-1,.43q-4.8,2.07-9.67,3.95l-.72.28-2.09.81-.65.25c-.74.29-1.49.56-2.24.82-1,.26-1.47.48-2.4,0l-.68-.57-.81-.68-1.55-1.35-2-1.7c-1.59-1.39-3.19-2.74-4.84-4.05a6.25,6.25,0,0,1-2.32-2.75c.95-.39,1.91-.76,2.87-1.11,10.22-3.61,20.41-7.35,30.27-11.86l1.26-.58,1.15-.53a13,13,0,0,1,3.64-1.18A3.84,3.84,0,0,1-304.89,392.91Z" transform="translate(697.46 0)"/><path d="M305.55,0C188.26.24,92.81,96.65,93.68,213.94a211.35,211.35,0,0,0,42.64,126c96.91,128.63,151.3,284.26,151.3,445.32V792h36.76v-1.59c0-162,51.53-320.44,150.15-448.93a211.39,211.39,0,0,0,43.79-129.16C518.32,94.91,423-.24,305.55,0ZM152.24,204.33c-.54-.25-1.07-.47-1.62-.68-2.56-1.07-2.56-1.07-3.38-2.33a20.55,20.55,0,0,1-.89-2.89c-.1-.35-.2-.71-.31-1.07-.31-1.12-.61-2.24-.9-3.38-.21-.76-.42-1.52-.64-2.27-.38-1.39-.76-2.77-1.12-4.17-.08-.28-.15-.56-.22-.84a6.7,6.7,0,0,1-.16-2c2.85,1.31,5.7,2.67,8.5,4.09,5.77,2.92,11.55,5.73,17.5,8.27l.68.29A323.33,323.33,0,0,0,214,212.89l.87.24.75.19c.59.21.59.21,1.22.84-.78.75-1.58,1.49-2.38,2.24l-.66.63q-2,1.83-4,3.6c-1,.89-2,1.8-3,2.72l-.73.64-.58.53a1.76,1.76,0,0,1-1.39.41c-.26-.07-.5-.13-.76-.18s-.57-.14-.85-.21c-1.34-.37-2.65-.78-4-1.23l-.88-.29-2.84-1-1-.35A334.45,334.45,0,0,1,152.24,204.33Zm16.37,31.11-.83-.37-.73-.32a2.6,2.6,0,0,1-1.48-1.61c-.08-.28-.16-.56-.25-.84s-.19-.63-.29-1-.2-.69-.31-1-.21-.69-.31-1.05q-.34-1.11-.66-2.22c-.33-1.14-.68-2.28-1-3.41-.21-.71-.43-1.43-.64-2.15-.1-.34-.2-.68-.31-1s-.18-.63-.28-1-.17-.56-.25-.84a3.61,3.61,0,0,1-.17-1.31,11.85,11.85,0,0,1,3.32,1.08l1,.48,1.15.54c9,4.12,18.34,7.54,27.68,10.84.88.32,1.75.66,2.62,1a5.69,5.69,0,0,1-2.12,2.52c-1.5,1.19-3,2.43-4.42,3.7l-1.8,1.55-1.42,1.24-.74.62-.62.52c-.85.43-1.27.23-2.2,0-.68-.24-1.37-.48-2-.75-.2-.07-.4-.14-.6-.23L179,239.7l-.66-.25c-3-1.16-5.9-2.35-8.83-3.61Zm284-16.8c-.08.28-.17.57-.25.84s-.19.64-.28,1-.21.69-.31,1c-.21.72-.43,1.44-.64,2.15-.34,1.13-.69,2.27-1,3.41l-.66,2.22c-.1.36-.21.71-.32,1.05s-.21.7-.31,1-.19.64-.28,1-.17.56-.26.84a2.58,2.58,0,0,1-1.47,1.61l-.73.32-.83.37-.92.4c-2.93,1.26-5.87,2.45-8.84,3.61l-.65.25-1.92.74c-.2.09-.4.16-.6.23-.67.27-1.36.51-2.05.75-.92.24-1.34.44-2.19,0l-.62-.52-.74-.62-1.42-1.24c-.6-.51-1.21-1-1.8-1.55-1.45-1.27-2.92-2.51-4.43-3.7a5.73,5.73,0,0,1-2.11-2.52c.87-.35,1.74-.69,2.62-1,9.34-3.3,18.66-6.72,27.68-10.84l1.14-.54,1.05-.48a12,12,0,0,1,3.33-1.08A3.61,3.61,0,0,1,452.58,218.64Zm18.09-31.94c-.07.28-.14.56-.22.84-.36,1.4-.74,2.78-1.12,4.17-.22.75-.43,1.51-.64,2.27-.29,1.14-.59,2.26-.9,3.38-.11.36-.21.72-.31,1.07a22,22,0,0,1-.89,2.89c-.82,1.26-.82,1.26-3.38,2.33-.55.21-1.09.43-1.62.68A334.58,334.58,0,0,1,420,221.7l-1,.35-2.84,1-.88.29c-1.32.45-2.64.86-4,1.23-.28.07-.57.13-.85.21s-.5.11-.76.18a1.76,1.76,0,0,1-1.39-.41l-.58-.53-.74-.64c-1-.92-2-1.83-3-2.72-1.36-1.18-2.68-2.38-4-3.6l-.67-.63c-.79-.75-1.59-1.49-2.37-2.24.63-.63.63-.63,1.22-.84l.75-.19.87-.24a323.33,323.33,0,0,0,44.35-15.56l.68-.29c5.95-2.54,11.73-5.35,17.49-8.27q4.21-2.13,8.51-4.09A6.7,6.7,0,0,1,470.67,186.7ZM486.36,157c-.27,1.14-.54,2.28-.83,3.41-.16.61-.3,1.2-.46,1.8a40.75,40.75,0,0,1-1.41,5.2c-.92,2.06-2.56,2.88-4.55,3.74a19.65,19.65,0,0,0-2.22,1.06A261.49,261.49,0,0,1,451.77,185l-.56.27q-2.77,1.27-5.55,2.51l-.8.34a365.1,365.1,0,0,1-60.23,19.91c-2.64.64-5.29,1.3-7.93,2,.73.73,1.44,1.46,2.22,2.14s1.64,1.4,2.41,2.16c1.17,1.2,2.38,2.35,3.61,3.49s2.71,2.48,4,3.74c1.52,1.42,3,2.84,4.59,4.22l3,2.7c1.2,1.11,2.42,2.23,3.66,3.3.67.59,1.34,1.17,2,1.77,1,.9,2,1.83,3,2.72s1.79,1.57,2.67,2.36c2,1.81,4,3.57,6,5.3l2.27,1.93c2.13,1.84,4.26,3.66,6.41,5.47l1.55,1.31q3.09,2.63,6.24,5.21l3.4,2.78c.32.25.62.51.93.76.57.46,1.15.93,1.71,1.4.2.15.38.31.57.46.65.52,1.24,1,1.85,1.63v.95c-3.22,1.34-6.45,2.64-9.7,3.86l-2.18.81-1.46.55c-.24.09-.47.17-.7.27l-1.27.47c-1.25.4-2.74,1-4,.41a30.39,30.39,0,0,0-2.42-2.25c-1.65-1.31-3.23-2.67-4.77-4.12-1.26-1.18-2.53-2.31-3.87-3.39-1.14-.92-2.24-1.86-3.32-2.84-.92-.83-1.83-1.65-2.76-2.45-.6-.52-1.18-1-1.77-1.58l-.49-.47-1-1c-.59-.58-1.19-1.1-1.83-1.63a3.06,3.06,0,0,0-2-.18c-21.46,6.59-44.77,9.73-67.13,10.93l-.65,0a3.77,3.77,0,0,1-.19,1.59l-.3.76c-.11.31-.23.61-.34.91-.26.7-.53,1.4-.79,2.11l-.45,1.21c-.75,2-1.48,3.94-2.21,5.93-.4,1.07-.81,2.16-1.21,3.25-.27.73-.55,1.46-.81,2.19-.4,1.07-.8,2.14-1.19,3.21-.13.34-.26.68-.37,1-.8,2.16-1.64,4.28-2.61,6.36l-7.87,0h-6.44l-7.87,0c-1-2.08-1.81-4.2-2.61-6.36-.11-.33-.24-.67-.37-1-.39-1.07-.79-2.14-1.19-3.21-.26-.73-.54-1.46-.81-2.19-.4-1.09-.81-2.18-1.21-3.25-.73-2-1.46-4-2.21-5.93l-.45-1.21c-.26-.71-.53-1.41-.79-2.11-.11-.3-.23-.6-.34-.91l-.3-.76a3.77,3.77,0,0,1-.19-1.59l-.65,0c-22.36-1.2-45.67-4.34-67.13-10.93a3.06,3.06,0,0,0-2,.18c-.64.53-1.24,1-1.83,1.63l-1,1-.49.47c-.59.54-1.17,1.06-1.77,1.58-.93.8-1.84,1.62-2.76,2.45-1.08,1-2.18,1.92-3.32,2.84-1.34,1.08-2.61,2.21-3.87,3.39-1.54,1.45-3.12,2.81-4.77,4.12a30.39,30.39,0,0,0-2.42,2.25c-1.24.62-2.73,0-4-.41l-1.27-.47c-.23-.1-.46-.18-.7-.27l-1.46-.55-2.18-.81c-3.25-1.22-6.48-2.52-9.7-3.86v-.95c.61-.59,1.2-1.11,1.85-1.63.19-.15.37-.31.57-.46.56-.47,1.14-.94,1.71-1.4.31-.25.61-.51.93-.76l3.4-2.78q3.15-2.58,6.24-5.21l1.55-1.31c2.15-1.81,4.28-3.63,6.41-5.47l2.27-1.93c2-1.73,4-3.49,6-5.3.88-.79,1.76-1.58,2.67-2.36s2-1.82,3-2.72c.66-.6,1.33-1.18,2-1.77,1.24-1.07,2.46-2.19,3.66-3.3q1.48-1.37,3-2.7c1.55-1.38,3.07-2.8,4.59-4.22,1.33-1.26,2.68-2.5,4-3.74s2.44-2.29,3.61-3.49c.77-.76,1.59-1.45,2.41-2.16s1.49-1.41,2.22-2.14c-2.64-.67-5.29-1.33-7.93-2a365.1,365.1,0,0,1-60.23-19.91l-.8-.34q-2.78-1.23-5.55-2.51l-.56-.27a261.49,261.49,0,0,1-25.12-12.84,19.65,19.65,0,0,0-2.22-1.06c-2-.86-3.63-1.68-4.55-3.74a40.75,40.75,0,0,1-1.41-5.2c-.16-.6-.3-1.19-.46-1.8-.29-1.13-.56-2.27-.83-3.41-.35-1.46-.74-2.91-1.16-4.35a4.52,4.52,0,0,1-.15-1.57,17.46,17.46,0,0,1,3,1.43l.82.5.86.52c6.51,3.88,13.15,7.49,19.9,10.92l3.12,1.61a307.3,307.3,0,0,0,38.9,16.4l.64.23a350.49,350.49,0,0,0,46.29,12.65l1,.22,2.92.57.86.17c.55.11,1.1.2,1.64.29a13.54,13.54,0,0,1,1.67.36,4,4,0,0,0,3.55-.49c1-.9,1.95-1.85,2.89-2.83.34-.36.7-.72,1.05-1.07.93-.94,1.84-1.89,2.75-2.84s1.86-1.91,2.8-2.86c3.86-3.91,3.86-3.91,7.53-8a19.44,19.44,0,0,1,1.41-1.46h.63c1.36,3.38,2.64,6.8,3.88,10.23.16.45.33.89.49,1.33l.69,1.91c.12.36.26.73.4,1.11a2.85,2.85,0,0,1-.07,2.22,38.59,38.59,0,0,1-5,5.31c-.93.91-1.82,1.84-2.67,2.83-1.26,1.45-2.59,2.81-4,4.16l-.79.8-2.62,2.62c-.61.61-1.22,1.21-1.82,1.83l-3.83,3.82c-1.47,1.47-2.94,2.93-4.4,4.41-1.27,1.26-2.53,2.53-3.81,3.79L242.83,226l-2.53,2.51c-.36.38-.36.38-.74.75-1.3,1.29-2.62,2.53-4,3.72-1,.86-1.89,1.8-2.81,2.73a47.89,47.89,0,0,1-4,3.71,1.74,1.74,0,0,0-.76,1l1.08.13c1.46.18,2.88.46,4.32.77l1.7.35.91.19c10,2.06,20.08,3.63,30.23,4.87l.81.09c3.79.47,7.55.74,11.36.9l-.3-.82c-1-2.74-2-5.49-3-8.23q-1-2.68-2-5.35L271,227.73c-.38-1-.76-2.09-1.15-3.13l-1.3-3.55c-.13-.35-.27-.71-.4-1.09l-.36-1c-.11-.29-.22-.58-.32-.87a2.87,2.87,0,0,1,.13-2,38.45,38.45,0,0,1,4.83-5.14c1.14-1.13,2.22-2.28,3.26-3.51.75-.87,1.54-1.66,2.37-2.45h.64c.06.18.13.37.2.56q8.9,24.19,17.93,48.34c.18.49.36,1,.55,1.49,1.78,4.73,3.55,9.47,5.35,14.18l.33.88c.49,1.25,1,2.5,1.45,3.75l.46,1.23c.14.34.27.69.4,1a3.66,3.66,0,0,1,.28,1.77h.62a3.66,3.66,0,0,1,.28-1.77c.13-.35.26-.7.4-1l.46-1.23c.49-1.25,1-2.5,1.45-3.75l.33-.88c1.8-4.71,3.57-9.45,5.35-14.18.19-.5.37-1,.55-1.49q9.06-24.15,17.93-48.34c.07-.19.14-.38.2-.56h.64c.83.79,1.62,1.58,2.37,2.45,1,1.23,2.12,2.38,3.26,3.51a38.45,38.45,0,0,1,4.83,5.14,2.87,2.87,0,0,1,.13,2c-.1.29-.21.58-.32.87l-.36,1c-.13.38-.27.74-.4,1.09l-1.3,3.55c-.39,1-.77,2.08-1.15,3.13l-2.08,5.64q-1,2.67-2,5.35c-1,2.74-2,5.49-3,8.23l-.3.82c3.81-.16,7.57-.43,11.36-.9l.81-.09C355.9,245.54,366,244,376,241.91l.91-.19,1.7-.35c1.44-.31,2.86-.59,4.32-.77l1.08-.13a1.74,1.74,0,0,0-.76-1,47.89,47.89,0,0,1-4-3.71c-.92-.93-1.83-1.87-2.81-2.73-1.39-1.19-2.71-2.43-4-3.72-.38-.37-.38-.37-.74-.75L369.17,226l-2.25-2.27c-1.28-1.26-2.54-2.53-3.81-3.79-1.46-1.48-2.93-2.94-4.4-4.41l-3.83-3.82c-.6-.62-1.21-1.22-1.82-1.83l-2.62-2.62-.79-.8c-1.37-1.35-2.7-2.71-4-4.16-.85-1-1.74-1.92-2.67-2.83a38.59,38.59,0,0,1-5-5.31A2.85,2.85,0,0,1,338,192c.14-.38.28-.75.4-1.11l.69-1.91c.16-.44.33-.88.49-1.33,1.24-3.43,2.52-6.85,3.88-10.23H344a19.44,19.44,0,0,1,1.41,1.46c3.67,4.1,3.67,4.1,7.53,8,.94,1,1.88,1.9,2.8,2.86s1.82,1.9,2.75,2.84c.35.35.71.71,1.05,1.07.94,1,1.88,1.93,2.89,2.83a4,4,0,0,0,3.55.49,13.54,13.54,0,0,1,1.67-.36c.54-.09,1.09-.18,1.64-.29l.86-.17,2.92-.57,1-.22a350.49,350.49,0,0,0,46.29-12.65l.64-.23a307.3,307.3,0,0,0,38.9-16.4l3.12-1.61c6.75-3.43,13.39-7,19.9-10.92l.86-.52.82-.5a17.46,17.46,0,0,1,3-1.43,4.52,4.52,0,0,1-.15,1.57C487.1,154.08,486.71,155.53,486.36,157Z" transform="translate(697.46 0)"/><path d="M701.16,612.73a48.06,48.06,0,0,0-38.3,76.95c21.93,29.11,34.25,64.34,34.25,100.8V792h8.31v-.36c0-36.66,11.67-72.53,34-101.62a48.06,48.06,0,0,0-38.25-77.29ZM666.46,659l-.37-.16c-.58-.24-.58-.24-.76-.52a3.86,3.86,0,0,1-.2-.66,2.17,2.17,0,0,1-.07-.24l-.21-.76c0-.18-.09-.35-.14-.52s-.17-.63-.26-.94a1.05,1.05,0,0,0-.05-.19,1.9,1.9,0,0,1,0-.46c.64.3,1.29.61,1.92.93,1.31.66,2.62,1.29,4,1.87l.16.06a74.24,74.24,0,0,0,10,3.53l.19.05.17,0a.52.52,0,0,1,.28.19l-.54.51-.15.14-.9.82-.68.61-.17.15-.13.12a.44.44,0,0,1-.32.09l-.17,0-.19-.05c-.3-.08-.6-.17-.9-.28l-.2-.06-.64-.22-.23-.08A76.59,76.59,0,0,1,666.46,659Zm3.71,7-.19-.08-.17-.08a.56.56,0,0,1-.33-.36l-.06-.19-.06-.22a2,2,0,0,1-.07-.23,2.17,2.17,0,0,1-.07-.24c-.06-.17-.11-.34-.16-.5s-.15-.52-.23-.78-.09-.32-.14-.48-.05-.16-.07-.24l-.06-.21-.06-.19a.83.83,0,0,1,0-.3,2.74,2.74,0,0,1,.75.24l.24.11c.09,0,.17.09.26.12,2,.94,4.15,1.71,6.27,2.46l.59.23a1.39,1.39,0,0,1-.48.57c-.34.27-.67.55-1,.84l-.41.35-.32.28-.17.14-.14.12a.56.56,0,0,1-.49,0l-.47-.17-.13-.05-.44-.17-.15-.05c-.67-.26-1.33-.54-2-.82Zm64.27-3.8c0,.06,0,.12-.05.19a1.72,1.72,0,0,0-.07.21,2.17,2.17,0,0,1-.07.24c0,.16-.09.32-.14.48s-.16.52-.23.78l-.15.5a2.17,2.17,0,0,0-.07.24,2,2,0,0,0-.07.23c0,.08-.05.15-.07.22l-.06.19a.56.56,0,0,1-.33.36l-.16.08-.19.08-.21.09c-.66.28-1.33.56-2,.82l-.15.05-.43.17-.14.05-.46.17a.58.58,0,0,1-.5,0l-.14-.12-.17-.14c-.1-.1-.21-.19-.32-.28l-.41-.35c-.32-.29-.66-.57-1-.84a1.39,1.39,0,0,1-.48-.57l.6-.23c2.11-.75,4.22-1.52,6.26-2.46a2.06,2.06,0,0,0,.26-.12l.24-.11a2.85,2.85,0,0,1,.75-.24A.83.83,0,0,1,734.44,662.22Zm4.1-7.23c0,.06,0,.12,0,.19-.08.31-.17.63-.26.94s-.09.34-.14.52-.13.51-.2.76a2.17,2.17,0,0,0-.07.24,5.06,5.06,0,0,1-.21.66c-.18.28-.18.28-.76.52l-.37.16a76,76,0,0,1-9.41,3.93l-.23.08-.64.22-.2.06a9.37,9.37,0,0,1-.9.28l-.19.05-.17,0a.41.41,0,0,1-.31-.09l-.14-.12-.16-.15c-.23-.2-.45-.41-.69-.61l-.9-.82-.15-.14-.54-.51a.6.6,0,0,1,.28-.19l.17,0,.2-.05a74.24,74.24,0,0,0,10-3.53l.15-.06c1.35-.58,2.65-1.21,4-1.87.63-.32,1.28-.63,1.92-.93A1.9,1.9,0,0,1,738.54,655Zm3.55-6.73c-.06.26-.12.52-.19.77s-.07.28-.1.41a9.8,9.8,0,0,1-.32,1.18,1.71,1.71,0,0,1-1,.85,3.81,3.81,0,0,0-.5.23,57.48,57.48,0,0,1-5.69,2.91l-.13.06-1.25.57-.18.08a81.91,81.91,0,0,1-13.64,4.5l-1.79.45c.16.16.32.33.5.49s.37.31.55.48.53.54.81.79l.92.85,1,1,.67.62.83.74.45.4.69.62.6.53c.45.41.9.81,1.36,1.2l.52.44,1.45,1.24.35.29c.47.4.94.8,1.41,1.18l.77.63.21.18.39.31.13.11c.14.12.28.23.42.37v.21c-.73.31-1.46.6-2.2.87l-.49.19-.33.12-.16.06-.29.11a1.23,1.23,0,0,1-.9.09,5.35,5.35,0,0,0-.55-.51q-.55-.44-1.08-.93c-.28-.27-.57-.52-.87-.77s-.51-.42-.76-.64-.41-.37-.62-.55l-.4-.36-.11-.11a2.39,2.39,0,0,1-.23-.22l-.42-.36a.68.68,0,0,0-.44,0,63.68,63.68,0,0,1-15.2,2.48h-.15a.94.94,0,0,1,0,.36s0,.11-.07.17,0,.14-.07.2l-.18.48a2.31,2.31,0,0,0-.1.28c-.17.44-.34.89-.5,1.34-.1.24-.19.49-.28.73l-.18.5-.27.73-.09.22c-.18.49-.37,1-.59,1.44h-5c-.21-.47-.41-.95-.59-1.44a2,2,0,0,0-.08-.22l-.27-.73-.18-.5-.28-.73c-.16-.45-.33-.9-.5-1.34,0-.1-.07-.19-.1-.28l-.18-.48-.08-.2-.06-.17a.94.94,0,0,1,0-.36h-.15a63.68,63.68,0,0,1-15.2-2.48.67.67,0,0,0-.44,0l-.42.36a2.39,2.39,0,0,1-.23.22l-.11.11-.4.36c-.21.18-.42.36-.62.55s-.5.44-.76.64-.59.5-.87.77-.71.64-1.08.93a5.35,5.35,0,0,0-.55.51,1.23,1.23,0,0,1-.9-.09l-.29-.11-.16-.06-.33-.12-.49-.19c-.74-.27-1.47-.56-2.2-.87v-.21c.14-.14.28-.25.42-.37l.13-.11.39-.31.21-.18.77-.63c.47-.38.94-.78,1.41-1.18l.35-.29,1.45-1.24.52-.44c.46-.39.91-.79,1.36-1.2l.6-.53.69-.62.45-.4.83-.74.67-.62,1-1,.92-.85c.27-.25.55-.51.81-.79s.36-.32.55-.48l.5-.49-1.79-.45a81.91,81.91,0,0,1-13.64-4.5l-.18-.08-1.25-.57-.13-.06a57.48,57.48,0,0,1-5.69-2.91,3.81,3.81,0,0,0-.5-.23,1.71,1.71,0,0,1-1-.85,9.8,9.8,0,0,1-.32-1.18c0-.13-.07-.27-.1-.41s-.13-.51-.19-.77-.17-.66-.26-1a.89.89,0,0,1,0-.36,3.56,3.56,0,0,1,.68.33l.18.11.2.12c1.47.88,3,1.69,4.5,2.47l.71.36a70.09,70.09,0,0,0,8.8,3.72l.15.05a79.2,79.2,0,0,0,10.48,2.86l.23,0,.67.13.19,0,.37.06.38.09a.88.88,0,0,0,.8-.12c.23-.2.44-.41.66-.64l.23-.24.63-.64.63-.65c.87-.88.87-.88,1.71-1.81a3.26,3.26,0,0,1,.31-.33h.15c.3.76.59,1.54.87,2.31l.12.31.15.43.09.25a.62.62,0,0,1,0,.5,9.17,9.17,0,0,1-1.13,1.2c-.22.21-.42.42-.61.64s-.59.64-.89.94l-.18.19-.6.59-.41.41-.87.87-1,1-.86.86-.51.52-.58.57-.16.17c-.3.29-.6.57-.91.84s-.43.41-.64.62a11.79,11.79,0,0,1-.9.83.4.4,0,0,0-.17.24l.25,0c.33,0,.65.1,1,.17l.39.08.2,0c2.27.47,4.55.83,6.85,1.11l.18,0c.86.1,1.71.16,2.57.2a1.34,1.34,0,0,0-.07-.18c-.23-.63-.46-1.25-.68-1.87l-.45-1.21-.47-1.28c-.09-.23-.17-.47-.26-.7s-.2-.54-.29-.81l-.09-.24-.09-.23c0-.06,0-.13-.07-.2a.67.67,0,0,1,0-.46,9.19,9.19,0,0,1,1.09-1.16c.26-.26.51-.52.74-.79a7.14,7.14,0,0,1,.54-.56h.14s0,.08,0,.13q2,5.47,4.06,10.94l.12.34c.41,1.07.81,2.14,1.21,3.21,0,.06.05.13.08.2l.33.84.1.28.09.24a.85.85,0,0,1,.06.4h.15a.85.85,0,0,1,.06-.4l.09-.24.1-.28.33-.84c0-.07.05-.14.08-.2.4-1.07.8-2.14,1.21-3.21l.12-.34q2.05-5.46,4.06-10.94a.5.5,0,0,1,.05-.13h.14a7.14,7.14,0,0,1,.54.56c.23.27.48.53.74.79a9.19,9.19,0,0,1,1.09,1.16.67.67,0,0,1,0,.46c0,.07-.05.14-.08.2a2.09,2.09,0,0,1-.08.23l-.09.24c-.09.27-.19.54-.29.81s-.17.47-.26.7l-.47,1.28-.45,1.21c-.22.62-.45,1.24-.68,1.87a1.34,1.34,0,0,0-.07.18c.86,0,1.71-.1,2.57-.2l.18,0c2.3-.28,4.58-.64,6.85-1.11l.2,0,.39-.08c.32-.07.64-.13,1-.17l.25,0a.4.4,0,0,0-.17-.24,10.17,10.17,0,0,1-.9-.83c-.21-.21-.42-.43-.64-.62s-.61-.55-.91-.84l-.16-.17-.58-.57-.51-.52-.86-.86-1-1-.87-.87-.41-.41-.6-.59-.18-.19c-.3-.3-.61-.61-.89-.94s-.4-.43-.61-.64a9.17,9.17,0,0,1-1.13-1.2.62.62,0,0,1,0-.5l.09-.25.15-.43.12-.31c.27-.77.56-1.55.87-2.31h.15a3.26,3.26,0,0,1,.31.33c.84.93.84.93,1.71,1.81l.63.65c.21.21.41.43.63.64l.23.24a8,8,0,0,0,.66.64.88.88,0,0,0,.8.12l.38-.09.37-.06.19,0,.67-.13.23,0a79.2,79.2,0,0,0,10.48-2.86l.14-.05a69.6,69.6,0,0,0,8.81-3.72l.71-.36c1.52-.78,3-1.59,4.5-2.47l.2-.12.18-.11a3.56,3.56,0,0,1,.68-.33.89.89,0,0,1,0,.36C742.26,647.6,742.17,647.93,742.09,648.26Z" transform="translate(697.46 0)"/></svg>