<svg xmlns="http://www.w3.org/2000/svg" viewBox="0 0 96.12 179.27"><g id="Layer_2" data-name="Layer 2"><g id="Layer_1-2" data-name="Layer 1"><path d="M48,0A48.06,48.06,0,0,0,9.65,77C31.59,106.07,43.9,141.3,43.9,177.75v1.52h8.32v-.36c0-36.66,11.66-72.53,34-101.61A48.07,48.07,0,0,0,48,0ZM13.25,46.25l-.36-.15c-.58-.25-.58-.25-.77-.53s-.14-.43-.2-.65,0-.16-.07-.25c-.07-.25-.14-.5-.2-.76l-.15-.52c-.08-.31-.17-.62-.25-.94,0-.06,0-.13-.05-.19a1.37,1.37,0,0,1,0-.46c.65.3,1.29.61,1.93.93,1.3.66,2.61,1.3,4,1.87l.15.07a74.19,74.19,0,0,0,10,3.52l.2.05.17,0c.13,0,.13,0,.28.19l-.54.5-.15.15-.91.81-.68.62-.16.14-.14.12a.34.34,0,0,1-.31.09l-.17,0-.2,0c-.3-.08-.6-.17-.89-.27l-.2-.07-.65-.22-.22-.08A76.73,76.73,0,0,1,13.25,46.25Zm3.71,7-.19-.08-.16-.07a.62.62,0,0,1-.34-.37,1.8,1.8,0,0,0-.05-.19l-.07-.21a2.17,2.17,0,0,0-.07-.24c0-.08,0-.16-.07-.24l-.15-.5c-.07-.26-.15-.52-.23-.77s-.1-.33-.14-.49a2,2,0,0,1-.07-.23,1.87,1.87,0,0,1-.07-.22,1.33,1.33,0,0,1,0-.19.78.78,0,0,1,0-.3,2.88,2.88,0,0,1,.75.25l.24.11.26.12c2,.93,4.15,1.71,6.26,2.45l.59.23a1.19,1.19,0,0,1-.47.57c-.35.27-.68.55-1,.84l-.4.35-.32.28-.17.14-.14.12c-.2.1-.29.05-.5,0l-.46-.17-.14,0-.43-.17-.15-.06c-.67-.26-1.34-.53-2-.82Zm64.28-3.8-.06.19-.06.22a2,2,0,0,0-.07.23l-.15.49c-.07.25-.15.51-.23.77l-.15.5a4018682850058,4018682850058,0,0,1-.14.48l-.06.21-.06.19a.61.61,0,0,1-.33.37l-.17.07-.19.08-.21.09c-.66.29-1.32.56-2,.82l-.15.06-.44.17-.13,0-.47.17c-.21.05-.3.1-.49,0l-.14-.12-.17-.14-.32-.28-.41-.35c-.33-.29-.66-.57-1-.84a1.21,1.21,0,0,1-.48-.57l.59-.23C75.88,51.38,78,50.6,80,49.67l.26-.12.24-.11a2.76,2.76,0,0,1,.75-.25A.78.78,0,0,1,81.24,49.49Zm4.09-7.23a1.33,1.33,0,0,1,0,.19c-.08.32-.16.63-.25.94s-.1.35-.14.52l-.21.76c0,.09-.05.17-.07.25a3.75,3.75,0,0,1-.2.65c-.18.28-.18.28-.76.53-.13,0-.25.1-.37.15a76.59,76.59,0,0,1-9.41,3.93l-.23.08-.64.22-.2.07q-.45.15-.9.27l-.19,0-.17,0a.37.37,0,0,1-.32-.09l-.13-.12-.17-.14-.68-.62-.9-.81L69.19,49l-.54-.5c.14-.15.14-.15.28-.19l.17,0,.19-.05a74.19,74.19,0,0,0,10-3.52l.15-.07c1.35-.57,2.66-1.21,4-1.87.64-.32,1.28-.63,1.93-.93A1.37,1.37,0,0,1,85.33,42.26Zm3.56-6.72c-.06.25-.13.51-.19.77s-.07.27-.11.41a9.65,9.65,0,0,1-.32,1.17,1.66,1.66,0,0,1-1,.85c-.17.07-.33.15-.5.24a60.67,60.67,0,0,1-5.68,2.9l-.13.06q-.63.3-1.26.57l-.18.08A82.46,82.46,0,0,1,65.86,47.1l-1.8.44c.17.17.33.33.51.49s.37.32.54.49l.82.79.91.84c.35.33.69.65,1,1l.67.61.83.75.46.4.68.61.61.54c.44.41.9.8,1.36,1.2l.51.43,1.45,1.24.35.3,1.42,1.18L77,59l.21.17.38.32.13.1c.15.12.28.24.42.37v.21c-.73.31-1.46.6-2.19.88l-.5.18-.33.13-.16.06-.28.1a1.26,1.26,0,0,1-.91.1,6.51,6.51,0,0,0-.54-.51c-.38-.3-.73-.61-1.08-.94s-.58-.52-.88-.76-.5-.42-.75-.64l-.62-.56-.41-.36-.11-.11-.23-.21c-.13-.13-.27-.25-.41-.37a.7.7,0,0,0-.45,0,64,64,0,0,1-15.19,2.47h-.15a.94.94,0,0,1,0,.36c0,.06,0,.12-.07.17a1.8,1.8,0,0,1-.08.21l-.18.47c0,.09-.06.19-.1.28-.17.44-.33.89-.5,1.34l-.27.74-.19.49-.27.73a2.09,2.09,0,0,1-.08.23c-.18.49-.37,1-.59,1.44h-5c-.22-.47-.41-1-.59-1.44a2.09,2.09,0,0,1-.08-.23l-.27-.73-.19-.49-.27-.74c-.17-.45-.33-.9-.5-1.34,0-.09-.07-.19-.1-.28l-.18-.47a1.8,1.8,0,0,1-.08-.21c0-.05,0-.11-.07-.17a.94.94,0,0,1,0-.36H43a64,64,0,0,1-15.19-2.47.7.7,0,0,0-.45,0c-.14.12-.28.24-.41.37l-.23.21-.11.11-.41.36-.62.56c-.25.22-.49.43-.75.64s-.59.5-.88.76-.7.64-1.08.94a6.51,6.51,0,0,0-.54.51,1.26,1.26,0,0,1-.91-.1l-.28-.1L21,61.36l-.33-.13-.49-.18c-.74-.28-1.47-.57-2.2-.88V60c.14-.13.27-.25.42-.37l.13-.1.38-.32.21-.17.77-.63,1.42-1.18.35-.3,1.45-1.24.51-.43c.46-.4.92-.79,1.36-1.2l.61-.54.68-.61.46-.4.83-.75.67-.61c.35-.31.69-.63,1-1l.91-.84.82-.79c.17-.17.36-.33.54-.49s.34-.32.51-.49l-1.8-.44a82.46,82.46,0,0,1-13.63-4.51l-.18-.08q-.63-.27-1.26-.57l-.13-.06A60.67,60.67,0,0,1,9.38,39c-.17-.09-.33-.17-.5-.24a1.66,1.66,0,0,1-1-.85,9.65,9.65,0,0,1-.32-1.17c0-.14-.07-.28-.11-.41s-.13-.52-.19-.77-.16-.66-.26-1a1.17,1.17,0,0,1,0-.36,4.27,4.27,0,0,1,.68.33l.18.11.2.12q2.21,1.32,4.5,2.47l.71.37A70,70,0,0,0,22,41.3l.15.05a80.65,80.65,0,0,0,10.47,2.87l.24,0,.66.13.2,0,.37.07.37.08a.93.93,0,0,0,.81-.11c.23-.21.44-.42.65-.64l.24-.25c.21-.21.42-.42.62-.64l.64-.65c.87-.88.87-.88,1.7-1.81a3.31,3.31,0,0,1,.32-.33h.14c.31.77.6,1.54.88,2.32l.11.3c.05.14.1.28.16.43l.09.25a.66.66,0,0,1,0,.5,8,8,0,0,1-1.13,1.2c-.21.21-.41.42-.6.65s-.59.63-.9.94l-.18.18-.59.59-.42.42-.86.86-1,1-.86.86-.51.51-.57.57L33,51.9c-.29.29-.59.57-.91.84s-.43.41-.63.62a10.17,10.17,0,0,1-.9.84.4.4,0,0,0-.17.23l.24,0c.33,0,.65.11,1,.17l.38.09.21,0c2.27.46,4.55.82,6.84,1.1l.19,0c.85.11,1.71.17,2.57.2a1.34,1.34,0,0,1-.07-.18L41.06,54c-.15-.4-.29-.8-.44-1.21s-.32-.85-.47-1.27c-.09-.24-.18-.47-.26-.71l-.3-.8-.09-.25c0-.07,0-.15-.08-.23l-.07-.19a.61.61,0,0,1,0-.46,8.63,8.63,0,0,1,1.09-1.17c.26-.25.5-.51.74-.79s.35-.38.53-.56h.15s0,.09,0,.13Q44,52,46,57.46l.13.34c.4,1.07.8,2.14,1.21,3.21,0,.07.05.13.07.2l.33.85.11.28.09.23A.89.89,0,0,1,48,63h.14a.89.89,0,0,1,.06-.4l.09-.23.11-.28.33-.85c0-.07.05-.13.07-.2.41-1.07.81-2.14,1.21-3.21l.13-.34q2-5.46,4.06-10.94s0-.08,0-.13h.15c.18.18.36.36.53.56s.48.54.74.79a8.63,8.63,0,0,1,1.09,1.17.61.61,0,0,1,0,.46l-.07.19c0,.08-.05.16-.08.23l-.09.25-.3.8c-.08.24-.17.47-.26.71-.15.42-.31.85-.47,1.27s-.29.81-.44,1.21l-.69,1.87a1.34,1.34,0,0,1-.07.18c.86,0,1.72-.09,2.57-.2l.19,0c2.29-.28,4.57-.64,6.84-1.1l.21,0,.38-.09c.33-.06.65-.13,1-.17l.24,0a.4.4,0,0,0-.17-.23,10.17,10.17,0,0,1-.9-.84c-.2-.21-.41-.42-.63-.62s-.62-.55-.91-.84l-.17-.17-.57-.57-.51-.51L61,49.79l-1-1-.86-.86-.42-.42-.59-.59-.18-.18c-.31-.31-.61-.61-.9-.94s-.39-.44-.6-.65A8,8,0,0,1,55.31,44a.66.66,0,0,1,0-.5l.09-.25c.06-.15.11-.29.16-.43l.11-.3c.28-.78.57-1.55.88-2.32h.14a3.31,3.31,0,0,1,.32.33c.83.93.83.93,1.7,1.81l.64.65c.2.22.41.43.62.64l.24.25c.21.22.42.43.65.64a.93.93,0,0,0,.81.11L62,44.5l.37-.07.2,0,.66-.13.24,0A80.65,80.65,0,0,0,74,41.35l.15-.05a70,70,0,0,0,8.8-3.71l.71-.37q2.3-1.15,4.5-2.47l.2-.12.18-.11a4.27,4.27,0,0,1,.68-.33,1.17,1.17,0,0,1,0,.36C89.05,34.88,89,35.2,88.89,35.54Z"/></g></g></svg>