<svg id="Layer_1" data-name="Layer 1" xmlns="http://www.w3.org/2000/svg" xmlns:xlink="http://www.w3.org/1999/xlink" viewBox="0 0 42.75 42.75"><defs><style>.cls-1{fill:none;}.cls-2{fill:url(#linear-gradient);}.cls-3{clip-path:url(#clip-path);}.cls-4{clip-path:url(#clip-path-2);}.cls-5{clip-path:url(#clip-path-3);}.cls-6{fill:#fff;}.cls-7{fill:url(#linear-gradient-2);}.cls-8{fill-rule:evenodd;fill:url(#linear-gradient-3);}</style><linearGradient id="linear-gradient" x1="235.64" y1="307.92" x2="235.64" y2="266.67" gradientTransform="matrix(1, 0, 0, -1, -215.02, 307.92)" gradientUnits="userSpaceOnUse"><stop offset="0" stop-color="#f4f7fc"/><stop offset="1" stop-color="#d1d8eb"/></linearGradient><clipPath id="clip-path" transform="translate(-215.02 -486.08)"><rect class="cls-1" x="216.15" y="487.21" width="39.26" height="39.26" rx="13.57"/></clipPath><clipPath id="clip-path-2" transform="translate(-215.02 -486.08)"><rect class="cls-1" x="216.15" y="487.21" width="52.01" height="52.01"/></clipPath><clipPath id="clip-path-3" transform="translate(-215.02 -486.08)"><rect class="cls-1" x="216.52" y="487.58" width="41.25" height="41.25"/></clipPath><linearGradient id="linear-gradient-2" x1="237.14" y1="306.42" x2="237.14" y2="265.17" gradientTransform="matrix(1, 0, 0, -1, 0, 794)" gradientUnits="userSpaceOnUse"><stop offset="0" stop-color="#f2f4fa"/><stop offset="1" stop-color="#f2f4fa" stop-opacity="0"/></linearGradient><linearGradient id="linear-gradient-3" x1="235.75" y1="294.83" x2="236.18" y2="258.53" gradientTransform="matrix(1, 0, 0, -1, 0, 794)" gradientUnits="userSpaceOnUse"><stop offset="0" stop-color="#674f31"/><stop offset="1" stop-color="#dfb08d"/></linearGradient></defs><rect class="cls-2" width="41.25" height="41.25" rx="13.57"/><g class="cls-3"><g class="cls-4"><g class="cls-5"><path class="cls-6" d="M257.77,487.58H216.52v41.25h41.25Z" transform="translate(-215.02 -486.08)"/><path class="cls-7" d="M257.77,487.58H216.52v41.25h41.25Z" transform="translate(-215.02 -486.08)"/><path class="cls-8" d="M244.47,503.24a26.29,26.29,0,0,1,0,7.92h0a4.21,4.21,0,0,1-1.41,2.61,4.93,4.93,0,0,1-2.82,1.21h0c-1.42.14-2.89.25-4.39.25s-3-.11-4.39-.25h0a4.9,4.9,0,0,1-2.81-1.21,4.18,4.18,0,0,1-1.42-2.61h0a26.29,26.29,0,0,1,0-7.92h0l0-.15a49.74,49.74,0,0,0,5.83,5,4.67,4.67,0,0,0,5.53,0,50.67,50.67,0,0,0,5.84-5,.77.77,0,0,0,0,.15Zm-.69-1.79a51.07,51.07,0,0,1-6.07,5.26,3.17,3.17,0,0,1-3.73,0,51.07,51.07,0,0,1-6.07-5.26,4.38,4.38,0,0,1,.73-.82,5,5,0,0,1,2.81-1.21h0c1.41-.13,2.88-.25,4.39-.25s3,.12,4.39.25h0a5.1,5.1,0,0,1,2.82,1.21A4.7,4.7,0,0,1,243.78,501.45Z" transform="translate(-215.02 -486.08)"/></g></g></g></svg>